<svg width="20" height="21" viewBox="0 0 20 21" fill="none" xmlns="http://www.w3.org/2000/svg">
<path d="M12.1377 2.40918C13.264 2.40941 14.1794 3.32212 14.1797 4.45117C14.1797 5.58043 13.2641 6.49391 12.1377 6.49414C11.0087 6.49414 10.0957 5.57819 10.0957 4.45117C10.0959 3.32198 11.0112 2.40918 12.1377 2.40918ZM12.1377 3.05566C11.3673 3.05566 10.7424 3.68244 10.7422 4.45117C10.7422 5.22001 11.3693 5.84766 12.1377 5.84766C12.9059 5.84743 13.5332 5.21987 13.5332 4.45117C13.533 3.68267 12.9057 3.05589 12.1377 3.05566Z" fill="#041C55" stroke="#041C55" stroke-width="0.2"/>
<path d="M19.2835 6.73607L14.9152 8.30597L14.1205 8.59181C13.7545 9.04067 13.3906 9.45157 13.0781 9.79324L13.1205 9.81334V19.1166L12.8371 18.9848L11.8036 18.5025L7.06696 16.2939L6.875 16.2046V6.93705L9.98661 8.38859C9.57589 7.87497 9.17188 7.32115 8.83259 6.76733L7.10045 5.95894L7.01786 5.92097L6.82589 5.83165L6.65179 5.74902L6.60268 5.76689L0 8.14072V19.5699L6.65179 17.1782L11.8036 19.5811L12.8371 20.0634L13.3438 20.3002L20 17.9085V6.47926L19.2835 6.73607ZM6.42857 16.2157L6.3192 16.2559L0.982143 18.1742V8.83076L6.42857 6.87229V16.2157ZM19.0179 17.2184L13.567 19.1769V9.83344L13.6808 9.79324L19.0179 7.87497V17.2184Z" fill="white"/>
<path d="M12.1367 0.149414C14.5164 0.149414 16.4452 2.07936 16.4453 4.45996C16.4453 5.09067 16.1537 5.82345 15.7412 6.5498C15.3262 7.28056 14.7774 8.02498 14.2402 8.68359C13.8716 9.1379 13.5049 9.54884 13.1914 9.8916V9.89258C12.9156 10.192 12.6781 10.4375 12.5098 10.6084C12.4256 10.6939 12.3585 10.7611 12.3125 10.8066C12.2896 10.8293 12.2718 10.8466 12.2598 10.8584C12.2537 10.8643 12.2492 10.869 12.2461 10.8721C12.2446 10.8735 12.243 10.8742 12.2422 10.875L12.2412 10.876L12.1367 10.9775L12.0332 10.877L12.0293 10.873C12.0271 10.8709 12.0236 10.8682 12.0195 10.8643C12.0112 10.8561 11.9993 10.8438 11.9834 10.8281C11.9512 10.7965 11.9034 10.7495 11.8438 10.6895C11.7245 10.5695 11.5546 10.3959 11.3516 10.1807C10.9451 9.74994 10.4047 9.15111 9.87012 8.48145C9.45667 7.96662 9.04832 7.40596 8.70508 6.8457V6.84473C8.20293 6.02156 7.82812 5.1738 7.82812 4.45996C7.82822 2.07946 9.75713 0.149565 12.1367 0.149414ZM12.1348 0.891602C11.1836 0.891602 10.2889 1.26261 9.61621 1.93555C8.94346 2.6086 8.57227 3.50427 8.57227 4.45605C8.57238 4.86377 8.75844 5.42134 9.14746 6.12012C9.30758 6.40758 9.49942 6.71132 9.72266 7.03418C9.95698 7.37255 10.2223 7.72734 10.5215 8.09766H10.5225C10.6109 8.20831 10.6991 8.31661 10.7871 8.42188L11.0498 8.72949V8.73047C11.4687 9.21775 11.8597 9.63059 12.1367 9.91699C12.2995 9.74825 12.5019 9.53639 12.7266 9.29004L13.2266 8.72754C13.3998 8.52758 13.5798 8.3151 13.7568 8.09375V8.09277C14.3403 7.36925 14.7992 6.70683 15.124 6.11621V6.11523C15.5128 5.41911 15.6972 4.86391 15.6973 4.45605C15.6973 3.50427 15.3261 2.6086 14.6533 1.93555C13.9806 1.26261 13.086 0.891602 12.1348 0.891602Z" fill="#041C55" stroke="#041C55" stroke-width="0.3"/>
</svg>
