<svg width="24" height="24" viewBox="0 0 24 24" fill="none" xmlns="http://www.w3.org/2000/svg">
<path d="M15.75 10.75L12 7M12 7L8.25 10.75M12 7V17M6 22H18C19.4001 22 20.1003 22 20.635 21.7275C21.1054 21.4879 21.4879 21.1054 21.7275 20.635C22 20.1003 22 19.4001 22 18V6C22 4.59987 22 3.8998 21.7275 3.36503C21.4879 2.89461 21.1054 2.51216 20.635 2.27249C20.1003 2 19.4001 2 18 2H6C4.59987 2 3.8998 2 3.36503 2.27249C2.89461 2.51216 2.51216 2.89461 2.27249 3.36503C2 3.8998 2 4.59986 2 6V18C2 19.4001 2 20.1003 2.27249 20.635C2.51216 21.1054 2.89461 21.4879 3.36503 21.7275C3.8998 22 4.59986 22 6 22Z" stroke="#00F0FF" stroke-width="2.5" stroke-linecap="round" stroke-linejoin="round"/>
</svg>
