<svg width="40" height="40" viewBox="0 0 40 40" fill="none" xmlns="http://www.w3.org/2000/svg">
<path fill-rule="evenodd" clip-rule="evenodd" d="M19.9303 8C19.3009 8 18.7908 8.50877 18.7908 9.13636V10.2727H18.2211C15.0746 10.2727 12.5237 12.8162 12.5237 15.9543V19.3636C12.5237 20.2019 12.2584 21.1502 11.8371 22.1077C11.4203 23.0548 10.8815 23.9425 10.406 24.6408C9.54048 25.9118 10.0763 27.9206 11.8465 28.239C13.004 28.4472 14.6397 28.6949 16.5649 28.8553C16.5626 28.9108 16.5615 28.9666 16.5615 29.0227C16.5615 31.2193 18.347 33 20.5496 33C22.7522 33 24.5377 31.2193 24.5377 29.0227C24.5377 28.9639 24.5365 28.9052 24.5339 28.8469C26.4162 28.6864 28.0159 28.4435 29.1535 28.239C30.9236 27.9206 31.4595 25.9118 30.5941 24.6408C30.1185 23.9425 29.5796 23.0548 29.1629 22.1077C28.7415 21.1502 28.4763 20.2019 28.4763 19.3636V15.9543C28.4763 12.8162 25.9253 10.2727 22.7789 10.2727H22.2092V9.13636C22.2092 8.50877 21.6991 8 21.0697 8H19.9303ZM20.5 29.0227C21.0826 29.0227 21.6534 29.0111 22.2089 28.9903C22.2179 29.9043 21.4732 30.6778 20.5496 30.6778C19.628 30.6778 18.8823 29.9066 18.8902 28.9939C19.4144 29.0125 19.952 29.0227 20.5 29.0227ZM18.2211 12.5455C16.333 12.5455 14.8027 14.0716 14.8027 15.9543V19.3636C14.8027 20.6402 14.4101 21.9163 13.9239 23.0211C13.4331 24.1364 12.8146 25.149 12.2913 25.9176C12.2796 25.9347 12.2742 25.951 12.2724 25.9674C12.2707 25.982 12.2721 25.9957 12.275 26.0066C14.0784 26.3299 17.0821 26.75 20.5 26.75C23.9178 26.75 26.9216 26.3299 28.725 26.0066C28.7279 25.9957 28.7292 25.982 28.7276 25.9674C28.7257 25.951 28.7203 25.9347 28.7087 25.9176C28.1854 25.149 27.5669 24.1364 27.0761 23.0211C26.5899 21.9163 26.1973 20.6402 26.1973 19.3636V15.9543C26.1973 14.0716 24.6669 12.5455 22.7789 12.5455H18.2211Z" fill="#00F0FF"/>
<path fill-rule="evenodd" clip-rule="evenodd" d="M24.4788 8.17468C24.6258 7.58647 25.2396 7.21921 25.8274 7.36654C25.9046 7.38596 25.9777 7.40747 26.1029 7.4496C26.2561 7.50112 26.4659 7.57915 26.7149 7.69095C27.2116 7.91394 27.8734 8.27542 28.5547 8.83646C29.9379 9.97563 31.3523 11.9012 31.6622 15.0003C31.7233 15.6109 31.2778 16.1554 30.6672 16.2164C30.0567 16.2775 29.5121 15.832 29.4511 15.2214C29.2054 12.7649 28.1198 11.3571 27.142 10.5519C26.6427 10.1407 26.1587 9.87716 25.8047 9.71821C25.6283 9.63904 25.4866 9.58685 25.3946 9.55591C25.3568 9.5432 25.3188 9.5312 25.2803 9.52037C24.6891 9.36865 24.3304 8.76773 24.4788 8.17468Z" fill="#00F0FF"/>
<path fill-rule="evenodd" clip-rule="evenodd" d="M15.5212 8.1749C15.3723 7.57957 14.7691 7.21761 14.1737 7.36645C14.0962 7.38589 14.023 7.40746 13.897 7.44982C13.7438 7.50134 13.534 7.57937 13.285 7.69116C12.7883 7.91416 12.1265 8.27564 11.4452 8.83668C10.062 9.97585 8.64754 11.9014 8.33763 15.0005C8.27657 15.6111 8.72206 16.1556 9.33266 16.2166C9.94327 16.2777 10.4878 15.8322 10.5488 15.2216C10.7945 12.7652 11.8801 11.3574 12.8579 10.5521C13.3572 10.1409 13.8412 9.87738 14.1952 9.71844C14.3715 9.63926 14.5133 9.58707 14.6053 9.55614C14.6431 9.54342 14.6811 9.53142 14.7195 9.52059C15.3108 9.36887 15.6694 8.76795 15.5212 8.1749Z" fill="#00F0FF"/>
</svg>
