<svg width="20" height="20" viewBox="0 0 20 20" fill="none" xmlns="http://www.w3.org/2000/svg">
<path d="M10.09 18.0483V17.2824H2.18814V2.64002H12.3149V3.903C12.5235 3.85411 12.7362 3.82559 12.9571 3.82559H14.499V2.09002V1.83335V1.6052C14.499 0.941119 14.1063 0.370744 13.546 0.126297C13.3579 0.0448152 13.1534 0 12.9407 0H6.86708H1.56237C1.3456 0 1.1411 0.0448152 0.952965 0.126297C0.392638 0.370744 0 0.941119 0 1.6052V1.89446V16.3575V18.3172C0 19.2013 0.699387 19.9224 1.55828 19.9224H4.29857H6.86299H10.5603C10.2658 19.4661 10.09 18.9202 10.09 18.3335V18.0483ZM7.97955 19.1116H6.51943C6.30266 19.1116 6.12679 18.9283 6.12679 18.7042C6.12679 18.4802 6.30266 18.2968 6.51943 18.2968H7.97955C8.19632 18.2968 8.37219 18.4802 8.37219 18.7042C8.37219 18.9324 8.19632 19.1116 7.97955 19.1116ZM18.229 5.14153H12.953C12.1023 5.14153 11.411 5.85857 11.411 6.73043V7.19895V18.0524V18.3335C11.411 19.2053 12.1063 19.9224 12.953 19.9224H18.229C19.0757 19.9224 19.771 19.2053 19.771 18.3335V18.0524V15.0946V8.09118V7.19488V6.72635C19.771 5.85857 19.0757 5.14153 18.229 5.14153ZM16.2577 19.2542H14.7689C14.5481 19.2542 14.3681 19.0668 14.3681 18.8428C14.3681 18.6146 14.5481 18.4313 14.7689 18.4313H16.2577C16.4785 18.4313 16.6585 18.6187 16.6585 18.8428C16.6585 19.0668 16.4744 19.2542 16.2577 19.2542ZM18.2331 17.7631C18.2249 17.7631 18.2127 17.7672 18.2045 17.7672H12.9734C12.9652 17.7672 12.953 17.7631 12.9448 17.7631V7.30895C12.953 7.30895 12.9652 7.30488 12.9734 7.30488H18.2086C18.2168 7.30488 18.2249 7.30895 18.2331 7.30895V17.7631Z" fill="white"/>
<path d="M11 6.98047C11 5.8759 11.8954 4.98047 13 4.98047H18C19.1046 4.98047 20 5.8759 20 6.98047V17.9826C20 19.0939 19.094 19.9921 17.9828 19.9825L12.9828 19.9394C11.885 19.9299 11 19.0373 11 17.9394V6.98047Z" fill="#041C55"/>
<path d="M12.7051 7.29883L17.9997 7.29918C17.9997 11.3792 17.9997 13.6667 17.9997 17.7468H12.7051V7.29883Z" fill="url(#paint0_linear_4706_22214)"/>
<path d="M14.5 18.7769C14.5 18.5843 14.6561 18.4282 14.8486 18.4282H16.1514C16.3439 18.4282 16.5 18.5843 16.5 18.7769C16.5 18.9694 16.3439 19.1255 16.1514 19.1255H14.8486C14.6561 19.1255 14.5 18.9694 14.5 18.7769Z" fill="#045F8A"/>
<defs>
<linearGradient id="paint0_linear_4706_22214" x1="15.3524" y1="7.29883" x2="15.3524" y2="17.7468" gradientUnits="userSpaceOnUse">
<stop stop-color="#0484B4"/>
<stop offset="1" stop-color="#046690"/>
</linearGradient>
</defs>
</svg>
