<svg width="20" height="20" viewBox="0 0 20 20" fill="none" xmlns="http://www.w3.org/2000/svg">
<path d="M11.7719 15.0007L11.9648 14.9993C12.8364 14.9993 13.2943 15.3606 13.8592 16.2166L14.1404 16.6511C14.3597 16.9757 14.4966 17.1117 14.669 17.1828C14.978 17.3101 15.2342 17.2475 16.1749 16.7946L16.4629 16.6544C17.0513 16.3655 17.4527 16.2002 17.9063 16.0868C18.1934 16.015 18.4842 16.1895 18.556 16.4766C18.6277 16.7636 18.4532 17.0544 18.1662 17.1262C17.8842 17.1967 17.6141 17.2978 17.2606 17.4607L16.433 17.8588C15.3131 18.3877 14.9333 18.4506 14.2607 18.1734C13.8142 17.9893 13.5603 17.7231 13.1888 17.1551L13.0498 16.938C12.6485 16.3057 12.4332 16.0982 12.0497 16.0734L11.9648 16.0708C11.5732 16.0708 11.4958 16.1197 10.0072 17.2244C8.76272 18.1479 7.81364 18.589 6.60672 18.589C5.13535 18.589 3.74893 18.3187 2.45159 17.7783L4.51039 17.3023C5.18461 17.4458 5.88317 17.5176 6.60672 17.5176C7.52862 17.5176 8.29278 17.1624 9.36867 16.364L10.1973 15.7526C11.1054 15.0926 11.3074 15.0108 11.7719 15.0007ZM16.2699 2.30084C17.4653 3.49628 17.4654 5.43446 16.27 6.62993L15.5303 7.36966C16.3531 8.37075 16.3235 9.43176 15.5585 10.199L13.4149 12.3426C13.2056 12.5517 12.8664 12.5516 12.6573 12.3423C12.4482 12.1329 12.4483 11.7937 12.6576 11.5846L14.7998 9.44252C15.1462 9.09503 15.1863 8.66363 14.7712 8.12927L7.20379 15.6966C6.9908 15.9096 6.72223 16.0584 6.42872 16.1262L2.08529 17.1285C1.69954 17.2175 1.35382 16.8718 1.44284 16.486L2.44517 12.1426C2.5129 11.8491 2.66174 11.5805 2.87471 11.3676L11.9409 2.3009C13.1363 1.10546 15.0744 1.10542 16.2699 2.30084ZM12.6985 3.0585L3.63234 12.1252C3.56135 12.1961 3.51174 12.2857 3.48917 12.3835L2.67957 15.8918L6.1878 15.0822C6.28564 15.0596 6.37516 15.01 6.44616 14.939L15.5123 5.87233C16.2893 5.09529 16.2893 3.83549 15.5123 3.05847C14.7353 2.28146 13.4755 2.28148 12.6985 3.0585Z" fill="white"/>
</svg>
