<svg width="17" height="17" viewBox="0 0 17 17" fill="none" xmlns="http://www.w3.org/2000/svg">
<path d="M5 10.648L7.99939 4L10.9988 10.648" stroke="white" stroke-width="1.6" stroke-linecap="round" stroke-linejoin="round"/>
<path d="M6.61383 9H9.82173M8.21778 1C6.79024 1 5.39476 1.42227 4.2078 2.21342C3.02084 3.00457 2.09572 4.12905 1.54942 5.44468C1.00313 6.76031 0.860191 8.20799 1.13869 9.60465C1.41719 11.0013 2.10462 12.2842 3.11404 13.2912C4.12347 14.2981 5.40955 14.9838 6.80966 15.2617C8.20978 15.5395 9.66103 15.3969 10.9799 14.8519C12.2988 14.307 13.426 13.3841 14.2191 12.2001C15.0122 11.0161 15.4356 9.62403 15.4356 8.2C15.4356 6.29044 14.6751 4.45909 13.3215 3.10883C11.9679 1.75857 10.1321 1 8.21778 1Z" stroke="white" stroke-width="1.6" stroke-linecap="round" stroke-linejoin="round"/>
</svg>
