<svg width="32" height="32" viewBox="0 0 32 32" fill="none" xmlns="http://www.w3.org/2000/svg">
<path d="M16 31.3324V23.6658V20.4258" stroke="#00F0FF" stroke-width="2.56" stroke-miterlimit="10"/>
<path d="M16 11.5746V8.33463V0.667969" stroke="#00F0FF" stroke-width="2.56" stroke-miterlimit="10"/>
<path d="M21.1079 3.22656L16.0012 8.33323L10.8945 3.22656" stroke="#00F0FF" stroke-width="2.56" stroke-miterlimit="10"/>
<path d="M10.8945 28.7746L16.0012 23.668L21.1079 28.7746" stroke="#00F0FF" stroke-width="2.56" stroke-miterlimit="10"/>
<path d="M29.2798 23.6682L22.6398 19.8415L19.8398 18.2148" stroke="#00F0FF" stroke-width="2.56" stroke-miterlimit="10"/>
<path d="M12.1721 13.7854L9.35875 12.172L2.71875 8.33203" stroke="#00F0FF" stroke-width="2.56" stroke-miterlimit="10"/>
<path d="M7.495 5.1875L9.36167 12.1742L2.375 14.0408" stroke="#00F0FF" stroke-width="2.56" stroke-miterlimit="10"/>
<path d="M24.5073 26.8143L22.6406 19.8409L29.6273 17.9609" stroke="#00F0FF" stroke-width="2.56" stroke-miterlimit="10"/>
<path d="M2.71875 23.6682L9.35875 19.8415L12.1721 18.2148" stroke="#00F0FF" stroke-width="2.56" stroke-miterlimit="10"/>
<path d="M19.8398 13.7854L22.6398 12.172L29.2798 8.33203" stroke="#00F0FF" stroke-width="2.56" stroke-miterlimit="10"/>
<path d="M24.5073 5.1875L22.6406 12.1742L29.6273 14.0408" stroke="#00F0FF" stroke-width="2.56" stroke-miterlimit="10"/>
<path d="M7.495 26.8143L9.36167 19.8409L2.375 17.9609" stroke="#00F0FF" stroke-width="2.56" stroke-miterlimit="10"/>
<path d="M19.8385 13.7876V18.2142L15.9985 20.4275L12.1719 18.2142V13.7876L15.9985 11.5742L19.8385 13.7876Z" stroke="#00F0FF" stroke-width="2.56" stroke-miterlimit="10"/>
</svg>
