<svg width="194" height="194" viewBox="0 0 194 194" fill="none" xmlns="http://www.w3.org/2000/svg">
<path d="M97 189.953V143.474V123.831" stroke="#00F0FF" stroke-width="15.52" stroke-miterlimit="10"/>
<path d="M97 70.1715V50.529V4.0498" stroke="#00F0FF" stroke-width="15.52" stroke-miterlimit="10"/>
<path d="M127.966 19.5605L97.0073 50.5197L66.0481 19.5605" stroke="#00F0FF" stroke-width="15.52" stroke-miterlimit="10"/>
<path d="M66.0481 174.446L97.0073 143.487L127.966 174.446" stroke="#00F0FF" stroke-width="15.52" stroke-miterlimit="10"/>
<path d="M177.509 143.489L137.254 120.289L120.279 110.428" stroke="#00F0FF" stroke-width="15.52" stroke-miterlimit="10"/>
<path d="M73.7933 83.5735L56.7374 73.7927L16.4824 50.5127" stroke="#00F0FF" stroke-width="15.52" stroke-miterlimit="10"/>
<path d="M45.4384 31.4492L56.7551 73.8059L14.3984 85.1225" stroke="#00F0FF" stroke-width="15.52" stroke-miterlimit="10"/>
<path d="M148.575 162.562L137.259 120.286L179.615 108.889" stroke="#00F0FF" stroke-width="15.52" stroke-miterlimit="10"/>
<path d="M16.4824 143.489L56.7374 120.289L73.7933 110.428" stroke="#00F0FF" stroke-width="15.52" stroke-miterlimit="10"/>
<path d="M120.279 83.5735L137.254 73.7927L177.509 50.5127" stroke="#00F0FF" stroke-width="15.52" stroke-miterlimit="10"/>
<path d="M148.575 31.4492L137.259 73.8059L179.615 85.1225" stroke="#00F0FF" stroke-width="15.52" stroke-miterlimit="10"/>
<path d="M45.4384 162.562L56.7551 120.286L14.3984 108.889" stroke="#00F0FF" stroke-width="15.52" stroke-miterlimit="10"/>
<path d="M120.271 83.5873V110.424L96.9912 123.842L73.792 110.424V83.5873L96.9912 70.1689L120.271 83.5873Z" stroke="#00F0FF" stroke-width="15.52" stroke-miterlimit="10"/>
</svg>
