<svg width="22" height="22" viewBox="0 0 22 22" fill="none" xmlns="http://www.w3.org/2000/svg">
<path d="M21.4089 14.8204C19.3348 15.7585 17.0241 16.0424 14.7846 15.6342C12.5451 15.226 10.4832 14.145 8.8735 12.5353C7.26385 10.9257 6.1829 8.86377 5.77467 6.62429C5.36644 4.3848 5.6503 2.07409 6.58845 0C4.93724 0.746216 3.4917 1.88187 2.37586 3.30954C1.26001 4.73721 0.507175 6.41427 0.181927 8.19684C-0.143321 9.97941 -0.0312662 11.8143 0.508477 13.544C1.04822 15.2738 1.99954 16.8468 3.28082 18.128C4.56209 19.4093 6.13508 20.3606 7.86483 20.9004C9.59457 21.4401 11.4294 21.5522 13.212 21.2269C14.9946 20.9017 16.6716 20.1488 18.0993 19.033C19.527 17.9172 20.6626 16.4716 21.4089 14.8204Z" fill="white"/>
</svg>
