<svg width="18" height="13" viewBox="0 0 18 13" fill="none" xmlns="http://www.w3.org/2000/svg">
<path d="M2.75586 11.1846C2.57762 11.1846 2.41985 11.0565 2.38837 10.8749C2.35312 10.6717 2.48927 10.4784 2.69249 10.4431C3.8342 10.2451 4.20255 9.45731 4.66889 8.46C5.20024 7.32362 5.86154 5.90942 7.91195 5.17829C8.10624 5.10902 8.31984 5.21036 8.38908 5.40462C8.45835 5.59888 8.35704 5.81251 8.16274 5.88175C6.40599 6.50817 5.8668 7.66124 5.34539 8.77637C4.85388 9.82745 4.34569 10.9143 2.82009 11.179C2.7985 11.1828 2.77703 11.1846 2.75586 11.1846Z" fill="white"/>
<path d="M1.95898 10.3896C1.78075 10.3896 1.62297 10.2616 1.59149 10.08C1.55624 9.87677 1.69239 9.68345 1.89561 9.64819C3.03729 9.45013 3.40564 8.66242 3.87197 7.66511C4.40332 6.52874 5.06463 5.11449 7.11508 4.3834C7.30933 4.31405 7.52297 4.41544 7.5922 4.60973C7.66147 4.80399 7.56016 5.01763 7.36587 5.08686C5.60912 5.71328 5.06993 6.86635 4.54851 7.98144C4.05701 9.03253 3.54881 10.1195 2.02321 10.3841C2.00167 10.3878 1.98016 10.3896 1.95898 10.3896Z" fill="white"/>
<path d="M1.16992 9.59988C0.991684 9.59988 0.833912 9.47179 0.802432 9.29019C0.76718 9.08701 0.903332 8.89369 1.10655 8.85844C2.24827 8.66037 2.61661 7.87263 3.08295 6.87528C3.11574 6.80511 3.14882 6.73446 3.18239 6.6634C3.27052 6.47695 3.49308 6.39718 3.67961 6.48542C3.86606 6.57355 3.94571 6.79615 3.85759 6.9826C3.82446 7.05269 3.79186 7.12238 3.75952 7.19161C3.26802 8.24269 2.75979 9.32963 1.23423 9.59428C1.2126 9.59805 1.19113 9.59988 1.16992 9.59988Z" fill="white"/>
<path d="M3.57424 12.0063C3.47606 12.0063 3.38084 11.9676 3.31022 11.8969L0.109394 8.69611C0.0107723 8.59749 -0.024666 8.45219 0.0174566 8.31925C0.0595791 8.18631 0.172242 8.08795 0.309626 8.06412C1.4513 7.86606 1.81969 7.07831 2.28602 6.081C2.81737 4.94463 3.47868 3.53042 5.52909 2.79929C5.66483 2.75086 5.81655 2.78495 5.91857 2.88697L9.15327 6.12167C9.24383 6.21222 9.28166 6.34285 9.25354 6.46776C9.22542 6.59267 9.13523 6.69447 9.01466 6.73749C7.2572 7.36417 6.70897 8.50843 6.17885 9.61504C5.67917 10.658 5.16249 11.7365 3.63813 12.0009C3.61681 12.0045 3.59541 12.0063 3.57424 12.0063ZM1.08647 8.61702L3.69564 11.2262C4.69765 10.978 5.05693 10.228 5.50523 9.29225C5.99486 8.27026 6.5932 7.02148 8.22893 6.25353L5.56124 3.58588C3.97705 4.22765 3.46165 5.32989 2.96252 6.39737C2.54843 7.28288 2.12258 8.19374 1.08647 8.61702Z" fill="white"/>
<path d="M13.143 11.0166C13.0474 11.0166 12.9518 10.9802 12.8789 10.9073L8.09374 6.12214C7.94792 5.97631 7.94792 5.73986 8.09374 5.594C8.23957 5.44814 8.47602 5.44818 8.62188 5.594L13.407 10.3792C13.5528 10.525 13.5528 10.7614 13.407 10.9073C13.3341 10.9802 13.2386 11.0166 13.143 11.0166Z" fill="white"/>
<path d="M4.31206 7.87906C4.2165 7.87906 4.12094 7.84257 4.04801 7.76968L2.53907 6.26077C2.39325 6.11495 2.39321 5.8785 2.53907 5.73267C2.68493 5.58685 2.92135 5.58681 3.06717 5.73267L4.57611 7.24158C4.72194 7.3874 4.72197 7.62386 4.57611 7.76972C4.50318 7.84261 4.40762 7.87906 4.31206 7.87906Z" fill="white"/>
<path d="M16.2356 5.06194C15.585 5.06194 14.9636 4.83651 14.3538 4.61529C13.1965 4.19548 12 3.76137 10.3148 4.56069C10.1284 4.64908 9.90572 4.56965 9.81737 4.38331C9.72898 4.19697 9.8084 3.97426 9.99474 3.88587C11.9616 2.95298 13.4293 3.48537 14.6085 3.91321C15.6434 4.28865 16.4609 4.58523 17.4083 3.91795C17.577 3.79916 17.8099 3.83964 17.9286 4.00821C18.0474 4.17681 18.007 4.40979 17.8384 4.52854C17.2802 4.92168 16.7488 5.06194 16.2356 5.06194Z" fill="white"/>
<path d="M16.2356 3.93499C15.585 3.93499 14.9636 3.70956 14.3538 3.48834C13.1966 3.06849 11.9999 2.63442 10.3148 3.43374C10.1284 3.52213 9.90576 3.44271 9.81737 3.25637C9.72898 3.07003 9.8084 2.84731 9.99474 2.75892C11.9617 1.82599 13.4293 2.35846 14.6085 2.78626C15.6435 3.1617 16.461 3.45824 17.4083 2.791C17.577 2.67225 17.8099 2.71266 17.9286 2.88126C18.0474 3.04986 18.007 3.28284 17.8384 3.40159C17.2802 3.79474 16.7488 3.93499 16.2356 3.93499Z" fill="white"/>
<path d="M16.2374 2.81464C15.5867 2.81464 14.9654 2.5892 14.3555 2.36799C14.2836 2.34192 14.2113 2.31567 14.1383 2.28953C13.9441 2.22004 13.8431 2.00629 13.9126 1.8121C13.9821 1.61792 14.196 1.51695 14.39 1.58637C14.464 1.61284 14.5373 1.63947 14.6102 1.66587C15.6451 2.04135 16.4626 2.33789 17.41 1.67065C17.5787 1.5519 17.8116 1.5923 17.9303 1.76091C18.0491 1.92951 18.0087 2.16245 17.8401 2.28124C17.282 2.67442 16.7505 2.81464 16.2374 2.81464Z" fill="white"/>
<path d="M16.2139 6.22872C15.5785 6.22872 14.984 6.01938 14.3546 5.79771C13.6818 5.56077 12.9862 5.31577 12.1887 5.31577C11.5696 5.31577 10.9566 5.46376 10.3147 5.76821C10.199 5.82311 10.0632 5.81485 9.95504 5.74644C9.84686 5.67799 9.78125 5.55887 9.78125 5.43082V0.856268C9.78125 0.712013 9.86434 0.580679 9.99466 0.518876C10.7308 0.169722 11.4405 0 12.1644 0C13.1029 0 13.9028 0.29019 14.6084 0.546174C15.1804 0.753687 15.7206 0.949662 16.232 0.949662C16.6482 0.949662 17.0219 0.822958 17.4082 0.550917C17.5222 0.470667 17.6714 0.460547 17.7952 0.524739C17.9189 0.588969 17.9966 0.716793 17.9966 0.856193V5.38284C17.9966 5.50431 17.9376 5.61821 17.8383 5.68815C17.3219 6.05191 16.7905 6.22872 16.2139 6.22872ZM12.1887 4.56891C13.1138 4.56891 13.9049 4.84749 14.6027 5.09328C15.1702 5.29314 15.7062 5.48187 16.2139 5.48187C16.5799 5.48187 16.9132 5.38582 17.2498 5.18152V1.49154C16.9229 1.62904 16.586 1.69659 16.232 1.69659C15.5893 1.69659 14.9892 1.47885 14.3537 1.24833C13.6743 1.00183 12.9716 0.746928 12.1644 0.746928C11.6225 0.746928 11.0851 0.861981 10.5281 1.09787V4.86993C11.0852 4.6678 11.6327 4.56891 12.1887 4.56891Z" fill="white"/>
<path d="M10.1547 12.4867C9.94847 12.4867 9.78125 12.3195 9.78125 12.1133V5.34608C9.78125 5.13984 9.94847 4.97266 10.1547 4.97266C10.3609 4.97266 10.5281 5.13984 10.5281 5.34608V12.1133C10.5281 12.3195 10.3609 12.4867 10.1547 12.4867Z" fill="white"/>
<path d="M14.1781 3.36106C13.9719 3.36106 13.8047 3.19388 13.8047 2.98764V0.853651C13.8047 0.647408 13.9719 0.480225 14.1781 0.480225C14.3843 0.480225 14.5515 0.647408 14.5515 0.853651V2.98764C14.5515 3.19388 14.3843 3.36106 14.1781 3.36106Z" fill="white"/>
</svg>
