<svg width="23" height="20" viewBox="0 0 23 20" fill="none" xmlns="http://www.w3.org/2000/svg">
<path d="M9.11295 12.9169H9.53288C9.61554 12.9169 9.69173 12.8689 9.72721 12.794L10.1136 11.9852C10.2106 11.7816 10.2099 11.6132 10.1136 11.4089L9.72721 10.5995C9.69173 10.5246 9.61554 10.4766 9.53288 10.4766H9.11295C8.99346 10.4766 8.89746 10.5732 8.89746 10.693V12.7005C8.89746 12.8202 8.99346 12.9169 9.11295 12.9169Z" fill="white"/>
<path d="M5.44661 16.6834H17.5531C18.1797 16.6834 18.6881 16.1833 18.6881 15.5666V7.82711C18.6881 7.21041 18.1797 6.71094 17.5531 6.71094H5.44661C4.81995 6.71094 4.31152 7.21041 4.31152 7.82711V15.5666C4.31152 16.1833 4.81999 16.6834 5.44661 16.6834ZM13.223 9.93139C13.223 9.84815 13.2649 9.77003 13.3353 9.72452C13.4056 9.67843 13.4941 9.67136 13.5703 9.7053L13.9948 9.89423C14.0586 9.92304 14.1315 9.92304 14.1956 9.89423L14.6204 9.7053C14.6966 9.67136 14.7851 9.67843 14.8555 9.72452C14.9254 9.76998 14.9678 9.84815 14.9678 9.93139V10.7491H13.223V9.93139ZM7.60286 11.6969V10.0979C7.60286 9.53178 8.0612 9.07199 8.62663 9.07199H9.78647C10.1807 9.07199 10.5403 9.29932 10.71 9.65598L11.2786 10.8477C11.3682 11.0347 11.5563 11.1538 11.7633 11.1538H15.0641C15.248 11.1538 15.3968 11.303 15.3968 11.4875V11.9069C15.3968 12.0907 15.248 12.2399 15.0641 12.2399H11.7633C11.5563 12.2399 11.3682 12.359 11.2786 12.5466L10.71 13.7377C10.5403 14.0944 10.1807 14.3211 9.78647 14.3211H8.62663C8.0612 14.3211 7.60286 13.8619 7.60286 13.2952V11.6969Z" fill="white"/>
<path d="M9.66897 5.30984C9.66897 5.07098 9.76632 4.85902 9.92512 4.7015C10.0849 4.54526 10.3005 4.45044 10.5436 4.44916H12.4564C12.6999 4.45044 12.9153 4.54522 13.0752 4.7015C13.234 4.85902 13.3307 5.07098 13.3314 5.30984V6.16572H14.2845V5.30984C14.2842 4.31664 13.4664 3.51234 12.4564 3.51172H10.5436C9.53385 3.51234 8.71613 4.31664 8.71582 5.30984V6.16572H9.66897V5.30984Z" fill="white"/>
<path d="M0 0V20H23V0H0ZM21.3334 18.3606H1.66669V1.63932H21.3334V18.3606Z" fill="white"/>
</svg>
