<svg width="20" height="20" viewBox="0 0 20 20" fill="none" xmlns="http://www.w3.org/2000/svg">
<path d="M18.1829 18.1805H1.81954V1.81954H9.09023V0H0V20H20V12.7268H18.1829V18.1805Z" fill="white"/>
<path d="M7.27292 11.8171H9.08997C9.08997 9.31146 11.1283 7.27069 13.6363 7.27069C16.1444 7.27069 18.1827 9.30897 18.1827 11.8171H19.9997C19.9997 9.27666 18.5033 7.07929 16.3458 6.06015C16.9224 5.41636 17.2729 4.56624 17.2729 3.63659C17.2729 1.62814 15.6448 0 13.6363 0C11.6279 0 9.99974 1.62814 9.99974 3.63659C9.99974 4.56873 10.3502 5.41884 10.9269 6.06015C8.76932 7.08178 7.27292 9.27666 7.27292 11.8171ZM13.6363 1.81954C14.6381 1.81954 15.4534 2.63485 15.4534 3.63659C15.4534 4.63833 14.6381 5.45364 13.6363 5.45364C12.6346 5.45364 11.8193 4.63833 11.8193 3.63659C11.8193 2.63485 12.6346 1.81954 13.6363 1.81954ZM2.72656 3.63659H8.1802V5.45364H2.72656V3.63659ZM2.72656 13.6366H17.2704V15.4536H2.72656V13.6366ZM2.72656 7.27318H6.36315V9.09023H2.72656V7.27318Z" fill="white"/>
</svg>
