<svg width="57" height="38" viewBox="0 0 57 38" fill="none" xmlns="http://www.w3.org/2000/svg">
<path d="M10.1567 25.7174C3.90227 23.8052 0.382171 17.1848 2.29434 10.9304C4.20653 4.67592 10.8269 1.15586 17.0813 3.06804M26.9365 14.3365L14.7731 10.6178C12.6883 9.98042 10.4816 11.1536 9.84412 13.2386C9.20675 15.3233 10.3801 17.5301 12.465 18.1675L36.2246 25.4316L31.6277 29.3016C30.1599 30.5375 29.884 32.692 30.993 34.258C32.019 35.7068 33.931 36.2198 35.5445 35.4793L48.9555 29.3238L55.1107 9.19114C51.6364 7.69196 45.788 5.12104 41.2051 3.10047C37.4173 1.43058 32.9839 2.96511 31.0401 6.61993L26.9365 14.3365Z" stroke="white" stroke-width="3" stroke-linecap="round" stroke-linejoin="round"/>
</svg>
