<svg width="20" height="22" viewBox="0 0 20 22" fill="none" xmlns="http://www.w3.org/2000/svg">
<path d="M14.75 10.75C14.75 11.4066 14.6207 12.0568 14.3694 12.6634C14.1181 13.27 13.7498 13.8212 13.2855 14.2855C12.8212 14.7498 12.27 15.1181 11.6634 15.3694C11.0568 15.6207 10.4066 15.75 9.75 15.75C9.0934 15.75 8.4432 15.6207 7.8366 15.3694C7.22995 15.1181 6.67876 14.7498 6.21447 14.2855C5.75017 13.8212 5.38188 13.27 5.1306 12.6634C4.87933 12.0568 4.75 11.4066 4.75 10.75C4.75 10.0934 4.87933 9.4432 5.1306 8.8366C5.38188 8.22995 5.75017 7.67876 6.21447 7.21447C6.67876 6.75017 7.22996 6.38188 7.8366 6.1306C8.4432 5.87933 9.0934 5.75 9.75 5.75C10.4066 5.75 11.0568 5.87933 11.6634 6.1306C12.27 6.38188 12.8212 6.75017 13.2855 7.21447C13.7498 7.67876 14.1181 8.22996 14.3694 8.8366C14.6207 9.4432 14.75 10.0934 14.75 10.75Z" stroke="#041C55" stroke-width="1.5"/>
<path d="M11.5978 12.6634C11.6983 12.0568 11.75 11.4066 11.75 10.75C11.75 10.0934 11.6983 9.4432 11.5978 8.8366C11.4972 8.22996 11.3499 7.67876 11.1642 7.21447C10.9785 6.75017 10.758 6.38188 10.5154 6.1306C10.2727 5.87933 10.0126 5.75 9.75 5.75C9.4874 5.75 9.2273 5.87933 8.9846 6.1306C8.742 6.38188 8.5215 6.75017 8.3358 7.21447C8.1501 7.67876 8.0028 8.22995 7.9022 8.8366C7.8017 9.4432 7.75 10.0934 7.75 10.75C7.75 11.4066 7.8017 12.0568 7.9022 12.6634C8.0027 13.27 8.1501 13.8212 8.3358 14.2855C8.5215 14.7498 8.742 15.1181 8.9846 15.3694C9.2273 15.6207 9.4874 15.75 9.75 15.75C10.0126 15.75 10.2727 15.6207 10.5154 15.3694C10.758 15.1181 10.9785 14.7498 11.1642 14.2855C11.3499 13.8212 11.4972 13.27 11.5978 12.6634Z" stroke="#041C55" stroke-width="1.5"/>
<path d="M4.75 10.75H14.75" stroke="#041C55" stroke-width="1.5" stroke-linecap="round"/>
<path d="M0.75 9.1667C0.75 5.96907 0.75 4.37028 1.12752 3.83241C1.50503 3.29454 3.00832 2.77996 6.01491 1.75079L6.58772 1.55472C8.155 1.01824 8.9386 0.75 9.75 0.75C10.5614 0.75 11.345 1.01824 12.9123 1.55472L13.4851 1.75079C16.4917 2.77996 17.995 3.29454 18.3725 3.83241C18.75 4.37028 18.75 5.96907 18.75 9.1667C18.75 9.6496 18.75 10.1734 18.75 10.7414C18.75 13.2463 17.9132 15.1784 16.75 16.6541M0.94284 12.75C1.80026 17.0484 5.32641 19.2629 7.64856 20.2773C8.37 20.5924 8.7307 20.75 9.75 20.75C10.7693 20.75 11.13 20.5924 11.8514 20.2773C12.4296 20.0247 13.0824 19.6978 13.75 19.2828" stroke="white" stroke-width="1.5" stroke-linecap="round"/>
</svg>
