<svg width="24" height="24" viewBox="0 0 24 24" fill="none" xmlns="http://www.w3.org/2000/svg">
<path d="M17.0861 14.2613L17.0861 17.0855L14.2619 17.0856L14.2619 14.2614L17.0861 14.2613ZM9.84966 7.02509L9.8497 9.84931L7.02548 9.84935L7.02544 7.02513L9.84966 7.02509Z" stroke="#00F0FF" stroke-width="2.00009"/>
<path d="M10.8282 10.8268L5.91417 10.8269L5.91409 5.91333L10.8281 5.91326L10.8282 10.8268ZM18.1992 5.91316L15.7422 5.91319L15.7422 8.36997L18.1992 8.36993L18.1992 5.91316ZM13.2853 18.1971L18.1994 18.197L18.1993 13.2835L13.2853 13.2836L13.2853 18.1971ZM5.91428 18.1972L8.3713 18.1972L8.37126 15.7404L5.91424 15.7404L5.91428 18.1972Z" stroke="#00F0FF" stroke-width="2.00009" stroke-linecap="round" stroke-linejoin="round"/>
<path d="M7.03055 1.00016L2.20613 1.00023C1.88626 1.00023 1.57948 1.1273 1.3533 1.35349C1.12711 1.57968 1.00004 1.88645 1.00005 2.20633L1.00012 7.03066" stroke="#00F0FF" stroke-width="2.00009" stroke-linecap="round" stroke-linejoin="round"/>
<path d="M22.9994 7.03058L22.9993 2.20624C22.9993 1.88637 22.8722 1.5796 22.646 1.35342C22.4199 1.12724 22.1131 1.00017 21.7932 1.00018L16.9688 1.00024" stroke="#00F0FF" stroke-width="2.00009" stroke-linecap="round" stroke-linejoin="round"/>
<path d="M1.00198 16.9695L1.00205 21.7938C1.00206 22.1137 1.12913 22.4205 1.35533 22.6466C1.58152 22.8728 1.8883 22.9999 2.20818 22.9999L7.03259 22.9998" stroke="#00F0FF" stroke-width="2.00009" stroke-linecap="round" stroke-linejoin="round"/>
<path d="M16.9689 22.9999L21.7933 22.9998C22.1132 22.9998 22.4199 22.8728 22.6461 22.6466C22.8723 22.4204 22.9994 22.1136 22.9994 21.7937L22.9993 16.9694" stroke="#00F0FF" stroke-width="2.00009" stroke-linecap="round" stroke-linejoin="round"/>
</svg>
