<svg width="20" height="20" viewBox="0 0 20 20" fill="none" xmlns="http://www.w3.org/2000/svg">
<g clip-path="url(#clip0_4706_22464)">
<path d="M14.7303 10.4609C13.8631 10.4609 13.0154 10.7181 12.2944 11.1999C11.5733 11.6817 11.0113 12.3664 10.6795 13.1676C10.3476 13.9688 10.2608 14.8504 10.43 15.7009C10.5991 16.5515 11.0167 17.3327 11.6299 17.9459C12.2431 18.5591 13.0244 18.9767 13.8749 19.1459C14.7255 19.3151 15.6071 19.2283 16.4082 18.8964C17.2094 18.5645 17.8942 18.0026 18.376 17.2815C18.8578 16.5605 19.1149 15.7127 19.1149 14.8456C19.1089 13.6845 18.645 12.5728 17.824 11.7519C17.003 10.9309 15.8913 10.467 14.7303 10.4609ZM15.4996 15.2302C15.3803 15.2272 15.2627 15.2011 15.1534 15.1532L13.4996 16.8071C13.4068 16.8989 13.2837 16.9536 13.1534 16.9609C13.0873 16.9673 13.0207 16.9565 12.9601 16.9296C12.8994 16.9026 12.8468 16.8604 12.8072 16.8071C12.7145 16.708 12.6629 16.5774 12.6629 16.4417C12.6629 16.306 12.7145 16.1754 12.8072 16.0763L14.4611 14.4225C14.4173 14.3119 14.3913 14.1951 14.3842 14.0763C14.3666 13.8929 14.3872 13.7079 14.4447 13.5329C14.5022 13.3578 14.5953 13.1966 14.7181 13.0593C14.8409 12.922 14.9909 12.8117 15.1585 12.7352C15.326 12.6586 15.5077 12.6177 15.6919 12.6148C15.8111 12.6177 15.9287 12.6438 16.038 12.6917C16.1149 12.6917 16.1149 12.7686 16.0765 12.8071L15.3072 13.5379C15.2894 13.5468 15.2745 13.5606 15.264 13.5776C15.2536 13.5945 15.248 13.6141 15.248 13.634C15.248 13.6539 15.2536 13.6735 15.264 13.6905C15.2745 13.7074 15.2894 13.7212 15.3072 13.7302L15.8072 14.2302C15.8209 14.2477 15.8384 14.262 15.8584 14.2717C15.8784 14.2815 15.9004 14.2866 15.9226 14.2866C15.9449 14.2866 15.9669 14.2815 15.9869 14.2717C16.0069 14.262 16.0243 14.2477 16.038 14.2302L16.7688 13.4994C16.8072 13.4609 16.9226 13.4609 16.9226 13.5379C16.9626 13.6496 16.9884 13.7659 16.9996 13.884C16.9967 14.0732 16.9547 14.2598 16.8762 14.4321C16.7978 14.6043 16.6846 14.7585 16.5437 14.8849C16.4029 15.0113 16.2374 15.1072 16.0577 15.1666C15.878 15.2261 15.688 15.2477 15.4996 15.2302Z" fill="white"/>
<path d="M8.3463 10.6926C11.0865 10.6926 13.3078 8.47125 13.3078 5.73107C13.3078 2.99089 11.0865 0.769531 8.3463 0.769531C5.60612 0.769531 3.38477 2.99089 3.38477 5.73107C3.38477 8.47125 5.60612 10.6926 8.3463 10.6926Z" fill="white"/>
<path d="M9.69233 19.1539C10.5385 19.1539 10.0769 18.577 10.0769 18.577C9.22775 17.5193 8.76627 16.2027 8.76925 14.8462C8.76517 13.9961 8.94905 13.1555 9.30771 12.3847C9.32386 12.3407 9.35022 12.3011 9.38463 12.2693C9.65386 11.7309 9.1154 11.6924 9.1154 11.6924C8.8732 11.6604 8.62885 11.6476 8.38463 11.6539C6.57381 11.661 4.82546 12.3167 3.45657 13.5021C2.08768 14.6875 1.18887 16.3242 0.923096 18.1155C0.923096 18.5001 1.03848 19.1924 2.23079 19.1924H9.57694C9.65386 19.1539 9.65386 19.1539 9.69233 19.1539Z" fill="white"/>
</g>
<defs>
<clipPath id="clip0_4706_22464">
<rect width="20" height="20" fill="white"/>
</clipPath>
</defs>
</svg>
