<svg width="18" height="20" viewBox="0 0 18 20" fill="none" xmlns="http://www.w3.org/2000/svg">
<path d="M15.3938 3.67016L3.5431 15.4107C3.09895 15.8507 2.35198 15.7907 1.98858 15.2707C0.736893 13.4606 0 11.3205 0 9.12041V4.73021C0 3.91017 0.625855 2.98013 1.39302 2.67012L7.0155 0.390017C8.28738 -0.130006 9.70058 -0.130006 10.9725 0.390017L15.0606 2.04009C15.7269 2.3101 15.8985 3.17014 15.3938 3.67016Z" fill="white"/>
<path d="M16.3446 5.0416C17.0007 4.49157 18.0001 4.96159 18.0001 5.81163V9.12179C18.0001 14.012 14.4166 18.5922 9.52086 19.9323C9.18775 20.0223 8.82435 20.0223 8.48115 19.9323C7.04776 19.5323 5.71532 18.8622 4.57467 17.9822C4.09014 17.6122 4.03967 16.9121 4.46363 16.4821C6.66419 14.252 13.1043 7.75172 16.3446 5.0416Z" fill="#041C55"/>
</svg>
