<svg width="17" height="17" viewBox="0 0 17 17" fill="none" xmlns="http://www.w3.org/2000/svg">
<path d="M8.45996 0.5C8.94275 0.5 9.41542 0.536823 9.87402 0.607422H9.87598C9.96751 0.621273 10.0361 0.672586 10.0742 0.737305L10.1016 0.805664L10.54 2.6543L10.6006 2.91211L10.8486 3.00586C11.3626 3.20117 11.844 3.45954 12.2793 3.76855L12.4766 3.90918L12.71 3.84082L14.6621 3.26758C14.773 3.23498 14.8777 3.2548 14.9492 3.2959L15.0088 3.34277C15.2092 3.56678 15.3961 3.80051 15.5684 4.04395L15.7354 4.29102L15.8965 4.54688C16.0604 4.8207 16.2042 5.10219 16.3301 5.3916L16.4053 5.58008C16.4282 5.63789 16.4207 5.72816 16.3262 5.80664L16.3242 5.80859L14.8066 7.08398L14.5938 7.2627L14.6328 7.53809C14.6682 7.78472 14.6875 8.03668 14.6875 8.29004C14.6875 8.54324 14.6682 8.79454 14.6328 9.04102L14.5938 9.31641L14.8066 9.49512L16.3242 10.7705L16.3262 10.7725C16.4207 10.8509 16.4282 10.9412 16.4053 10.999C16.2629 11.3547 16.0914 11.6971 15.8926 12.0293L15.7324 12.2852C15.5157 12.6189 15.2715 12.9353 15.0039 13.2344L15.0029 13.2363C14.9433 13.3034 14.8103 13.3529 14.6592 13.3086L12.7061 12.7354L12.4736 12.667L12.2754 12.8066C11.8402 13.1156 11.3596 13.375 10.8457 13.5703L10.5977 13.6641L10.5361 13.9219L10.0986 15.7705C10.076 15.8655 9.99411 15.9494 9.87207 15.9678L9.87012 15.9688C9.41172 16.0393 8.93958 16.0762 8.45703 16.0762C7.97423 16.0762 7.50159 16.0394 7.04297 15.9688L7.04102 15.9678C6.94963 15.9539 6.88085 15.9035 6.84277 15.8389L6.81543 15.7705L6.37695 13.9219L6.31641 13.6641L6.06836 13.5703L5.68945 13.4121C5.31669 13.2425 4.96429 13.0385 4.6377 12.8066L4.43945 12.666L4.20605 12.7354L2.25781 13.3115C2.14711 13.344 2.04312 13.3242 1.97168 13.2832L1.91211 13.2363C1.64486 12.9376 1.40108 12.6214 1.18457 12.2881L1.02441 12.0322C0.825672 11.7002 0.653088 11.3584 0.510742 11.0029H0.511719C0.488707 10.9451 0.496244 10.8549 0.59082 10.7764L0.592773 10.7734L2.11133 9.49805L2.32324 9.31934L2.28418 9.04492C2.2487 8.79457 2.22951 8.54305 2.22949 8.29004C2.22949 8.03668 2.24879 7.78472 2.28418 7.53809L2.32324 7.2627L2.11133 7.08398L0.592773 5.80859L0.59082 5.80664L0.535156 5.74609C0.494144 5.68477 0.493472 5.62247 0.510742 5.5791C0.653104 5.22363 0.825662 4.8818 1.02441 4.5498L1.18457 4.29395C1.40134 3.96023 1.64546 3.64382 1.91309 3.34473L1.91406 3.34375C1.97359 3.27665 2.10667 3.22626 2.25781 3.27051L2.25879 3.27148L4.21094 3.84375L4.44336 3.91211L4.6416 3.77246C5.07688 3.46342 5.55826 3.20509 6.07227 3.00977L6.31934 2.91504L6.38086 2.65723L6.81836 0.807617C6.84127 0.712983 6.92327 0.629652 7.04492 0.611328L7.0498 0.610352C7.50618 0.537041 7.97727 0.500017 8.45996 0.5ZM8.45996 5.19922C7.59592 5.1993 6.75981 5.51617 6.1377 6.09082C5.51434 6.66676 5.15625 7.45713 5.15625 8.29004C5.15638 9.12276 5.51448 9.91245 6.1377 10.4883C6.75981 11.0629 7.59592 11.3798 8.45996 11.3799C9.32411 11.3799 10.16 11.063 10.7822 10.4883C11.4056 9.91242 11.7645 9.12291 11.7646 8.29004C11.7646 7.45701 11.4058 6.66678 10.7822 6.09082C10.16 5.51614 9.32409 5.19922 8.45996 5.19922Z" stroke="#00FEFF"/>
</svg>
