<svg width="16" height="15" viewBox="0 0 16 15" fill="none" xmlns="http://www.w3.org/2000/svg">
<path d="M7.51562 1.25V2.5" stroke="white" stroke-width="1.25" stroke-linecap="round" stroke-linejoin="round"/>
<path d="M8.14453 5.08203C8.57784 5.19357 8.97331 5.41881 9.28986 5.73436C9.6064 6.0499 9.83248 6.44424 9.94459 6.87641" stroke="white" stroke-width="1.25" stroke-linecap="round" stroke-linejoin="round"/>
<path d="M11.9041 3.125L11.1172 3.91" stroke="white" stroke-width="1.25" stroke-linecap="round" stroke-linejoin="round"/>
<path d="M12.531 7.5H13.7841" stroke="white" stroke-width="1.25" stroke-linecap="round" stroke-linejoin="round"/>
<path d="M5.3858 5C5.02674 5.26864 4.72973 5.6111 4.5149 6.0042C4.30006 6.39731 4.17242 6.83187 4.1406 7.27847C4.10878 7.72507 4.17354 8.17328 4.33048 8.59274C4.48743 9.0122 4.7329 9.39312 5.05027 9.70971C5.36764 10.0263 5.7495 10.2712 6.17 10.4277C6.5905 10.5843 7.03981 10.6489 7.48751 10.6171C7.93521 10.5854 8.37085 10.4581 8.76492 10.2438C9.159 10.0295 9.50231 9.73318 9.77161 9.375C9.77161 10.2403 9.51438 11.0862 9.03247 11.8056C8.55055 12.5251 7.86558 13.0858 7.06418 13.417C6.26278 13.7481 5.38094 13.8347 4.53018 13.6659C3.67941 13.4971 2.89794 13.0804 2.28457 12.4686C1.67121 11.8567 1.2535 11.0772 1.08427 10.2285C0.915047 9.37985 1.0019 8.50019 1.33385 7.70076C1.6658 6.90133 2.22794 6.21805 2.94918 5.73732C3.67042 5.25659 4.51837 5 5.3858 5Z" stroke="white" stroke-width="1.25" stroke-linecap="round" stroke-linejoin="round"/>
</svg>
